HIERARCHY
ROOT Hips
{
	OFFSET 50.371201 -10.811614 85.524902
	CHANNELS 6 Xposition Yposition Zposition Xrotation Yrotation Zrotation
	JOINT spine
	{
		OFFSET 0.000000 -0.367607 6.392601
		CHANNELS 3 Xrotation Yrotation Zrotation
		JOINT spine1
		{
			OFFSET 0.000000 -0.000001 9.176109
			CHANNELS 3 Xrotation Yrotation Zrotation
			JOINT spine2
			{
				OFFSET 0.000000 -0.000002 8.792381
				CHANNELS 3 Xrotation Yrotation Zrotation
				JOINT Neck
				{
					OFFSET 0.000000 -1.076243 22.573692
					CHANNELS 3 Xrotation Yrotation Zrotation
					JOINT Head
					{
						OFFSET 0.000000 -0.000001 6.820114
						CHANNELS 3 Xrotation Yrotation Zrotation
						End Site
						{
							OFFSET 0.000000 5.444268 16.508499
						}
					}
				}
				JOINT RightShoulder
				{
					OFFSET -3.702209 0.515507 9.495087
					CHANNELS 3 Xrotation Yrotation Zrotation
					JOINT RightArm
					{
						OFFSET 0.000000 -0.000003 12.453697
						CHANNELS 3 Xrotation Yrotation Zrotation
						JOINT RightArmRoll
						{
							OFFSET 0.000000 -0.000001 6.286865
							CHANNELS 3 Xrotation Yrotation Zrotation
							JOINT RightForeArm
							{
								OFFSET 0.000000 -0.000003 18.311401
								CHANNELS 3 Xrotation Yrotation Zrotation
								JOINT RightForeArmRoll
								{
									OFFSET 0.000000 -0.000001 7.054825
									CHANNELS 3 Xrotation Yrotation Zrotation
									JOINT RightHand
									{
										OFFSET 0.000000 -0.000002 14.157501
										CHANNELS 3 Xrotation Yrotation Zrotation
										End Site
										{
											OFFSET 0.000000 0.000000 0.100006
										}
									}
								}
							}
						}
					}
				}
				JOINT LeftShoulder
				{
					OFFSET 3.702209 0.515507 9.495087
					CHANNELS 3 Xrotation Yrotation Zrotation
					JOINT LeftArm
					{
						OFFSET 0.000000 -0.000003 12.453697
						CHANNELS 3 Xrotation Yrotation Zrotation
						JOINT LeftArmRoll
						{
							OFFSET 0.000000 -0.000001 6.286850
							CHANNELS 3 Xrotation Yrotation Zrotation
							JOINT LeftForeArm
							{
								OFFSET 0.000000 -0.000003 18.311401
								CHANNELS 3 Xrotation Yrotation Zrotation
								JOINT LeftForeArmRoll
								{
									OFFSET 0.000000 -0.000001 7.054825
									CHANNELS 3 Xrotation Yrotation Zrotation
									JOINT LeftHand
									{
										OFFSET 0.000000 -0.000002 14.157501
										CHANNELS 3 Xrotation Yrotation Zrotation
										End Site
										{
											OFFSET 0.000000 0.000000 0.100006
										}
									}
								}
							}
						}
					}
				}
			}
		}
	}
	JOINT RightUpLeg
	{
		OFFSET -5.666161 0.871611 -1.039032
		CHANNELS 3 Xrotation Yrotation Zrotation
		JOINT RightUpLegRoll
		{
			OFFSET 0.000000 -0.000003 16.600502
			CHANNELS 3 Xrotation Yrotation Zrotation
			JOINT RightLeg
			{
				OFFSET 0.000000 0.000003 -20.557198
				CHANNELS 3 Xrotation Yrotation Zrotation
				JOINT RightLegRoll
				{
					OFFSET 0.000000 -0.000003 20.624397
					CHANNELS 3 Xrotation Yrotation Zrotation
					JOINT RightFoot
					{
						OFFSET 0.000000 -0.000003 17.166405
						CHANNELS 3 Xrotation Yrotation Zrotation
						JOINT RightToeBase
						{
							OFFSET 0.000000 -0.000003 14.350204
							CHANNELS 3 Xrotation Yrotation Zrotation
							End Site
							{
								OFFSET 0.006081 0.801060 6.949707
							}
						}
					}
				}
			}
		}
	}
	JOINT LeftUpLeg
	{
		OFFSET 5.666161 0.871611 -1.039032
		CHANNELS 3 Xrotation Yrotation Zrotation
		JOINT LeftUpLegRoll
		{
			OFFSET 0.000000 -0.000003 16.600601
			CHANNELS 3 Xrotation Yrotation Zrotation
			JOINT LeftLeg
			{
				OFFSET 0.000000 -0.000004 20.557098
				CHANNELS 3 Xrotation Yrotation Zrotation
				JOINT LeftLegRoll
				{
					OFFSET 0.000000 -0.000003 20.815094
					CHANNELS 3 Xrotation Yrotation Zrotation
					JOINT LeftFoot
					{
						OFFSET 0.000000 -0.000003 16.975693
						CHANNELS 3 Xrotation Yrotation Zrotation
						JOINT LeftToeBase
						{
							OFFSET 0.000000 -0.000003 14.350204
							CHANNELS 3 Xrotation Yrotation Zrotation
							End Site
							{
								OFFSET -0.027260 0.801060 6.949707
							}
						}
					}
				}
			}
		}
	}
}
MOTION
Frames: 4
Frame Time: 0.041667
52.418098 -10.908417 85.536293 -1.446214 0.892512 -2.771728 -1.557150 0.498770 -0.195728 0.894327 1.015736 -0.395552 2.539486 1.010916 -0.407691 11.946867 -7.426272 0.815311 4.301030 4.591867 1.049986 -4.138541 -64.172086 -5.359557 -45.337208 -114.505710 -40.756087 -0.000002 0.000007 -0.000006 7.496320 -15.242990 0.696404 -0.000002 0.000003 -3.000001 -5.000187 -7.998790 0.000175 -2.588327 54.807361 2.576680 -35.820155 117.006755 35.481040 0.000001 -0.000004 0.000004 8.426633 11.976428 -0.353537 -0.000005 0.000003 3.003201 -5.000187 7.998721 -0.000159 -0.892055 -178.348206 0.085967 -179.999991 0.000005 -0.967997 173.027570 -4.380486 -0.695180 0.000001 0.000002 0.082018 68.553031 6.824845 2.340642 25.485502 -7.353335 -0.017445 0.636975 177.536151 1.873607 -0.000005 -0.000004 -1.062380 -9.287481 0.940046 0.617900 -0.000001 -0.000004 -0.212781 72.205782 -6.768425 -2.234062 25.720216 7.344280 -0.406876 
52.415401 -10.914618 85.529289 -1.426842 0.894138 -2.773789 -1.557060 0.498733 -0.195004 0.894192 1.014516 -0.393177 2.539344 1.009728 -0.405301 11.927704 -7.429992 0.812686 4.302973 4.592883 1.048224 -4.175025 -64.175453 -5.401675 -45.350783 -114.514795 -40.788155 -0.000001 0.000006 -0.000005 7.513652 -15.249953 0.699389 -0.000002 0.000003 -3.000001 -5.000191 -7.998790 0.000175 -2.607372 54.805154 2.599392 -35.839468 117.027300 35.524377 0.000002 -0.000005 0.000004 8.458334 11.983196 -0.357168 -0.000006 0.000003 3.003200 -5.000190 7.998721 -0.000159 -0.927288 -178.357208 0.075526 -179.999991 0.000005 -0.967997 173.002872 -4.372323 -0.697091 0.000002 0.000002 0.081858 68.543728 6.825045 2.340154 25.515393 -7.353211 -0.035654 0.593372 177.536137 1.876821 -0.000005 -0.000004 -1.062450 -9.330243 0.938706 0.618597 -0.000000 -0.000004 -0.213754 72.227475 -6.767923 -2.233968 25.718999 7.344280 -0.405036 
52.418499 -10.909813 85.539291 -1.408083 0.895909 -2.775469 -1.556910 0.498745 -0.194317 0.894176 1.013337 -0.390838 2.539334 1.008579 -0.402948 11.908448 -7.434205 0.809942 4.305116 4.593917 1.046394 -4.213030 -64.179073 -5.445555 -45.366270 -114.523312 -40.821114 -0.000001 0.000007 -0.000006 7.529836 -15.256457 0.702143 -0.000002 0.000003 -3.000001 -5.000191 -7.998790 0.000175 -2.626540 54.803037 2.622252 -35.860488 117.047203 35.569054 0.000001 -0.000006 0.000004 8.489631 11.989576 -0.360724 -0.000006 0.000003 3.003200 -5.000188 7.998721 -0.000160 -0.961488 -178.366237 0.065333 -179.999991 0.000005 -0.967996 172.978584 -4.363161 -0.698843 0.000002 0.000002 0.081621 68.533831 6.824661 2.341093 25.546200 -7.353100 -0.054473 0.551111 177.535113 1.879587 -0.000005 -0.000004 -1.062540 -9.371726 0.937639 0.619240 -0.000001 -0.000004 -0.214675 72.248655 -6.767427 -2.234008 25.717696 7.344281 -0.403139 
52.391300 -10.890215 85.531883 -1.389740 0.897784 -2.776900 -1.556719 0.498794 -0.193657 0.894244 1.012187 -0.388525 2.539403 1.007460 -0.400621 11.889405 -7.438754 0.807149 4.307401 4.594950 1.044502 -4.252104 -64.182837 -5.490687 -45.383301 -114.531139 -40.854954 -0.000000 0.000007 -0.000004 7.545239 -15.262689 0.704737 -0.000001 0.000003 -3.000001 -5.000191 -7.998790 0.000175 -2.645779 54.800927 2.645200 -35.882013 117.067270 35.613873 -0.000001 -0.000006 0.000004 8.520634 11.995760 -0.364236 -0.000005 0.000003 3.003200 -5.000189 7.998722 -0.000160 -0.994966 -178.375240 0.055317 -179.999991 0.000005 -0.967997 172.954528 -4.354990 -0.701703 0.000002 0.000002 0.081329 68.523388 6.823877 2.343088 25.577718 -7.353015 -0.073705 0.509787 177.535099 1.882035 -0.000005 -0.000004 -1.062650 -9.412308 0.936760 0.619845 -0.000000 -0.000004 -0.215563 72.269514 -6.766962 -2.233973 25.716475 7.344280 -0.401220 
